<?xml version="1.0" encoding="UTF-8" standalone="no"?>
<svg
   viewBox="0 0 256 256"
   fill="currentColor"
   version="1.1"
   id="svg1"
   xmlns="http://www.w3.org/2000/svg"
   xmlns:svg="http://www.w3.org/2000/svg">
  <defs
     id="defs1" />
  <path
     style="baseline-shift:baseline;display:inline;overflow:visible;vector-effect:none;fill:#000000;stroke-linecap:round;stroke-linejoin:round;enable-background:accumulate;stop-color:#000000;stop-opacity:1;opacity:1"
     d="m 35.308594,24.90625 a 8,8 0 0 0 -5.710938,2.210937 8,8 0 0 0 -0.263672,11.310547 L 68.589844,79.5625 c -5.435629,7.201339 -8.787109,16.050379 -8.78711,25.7168 0,12.82125 5.800122,24.2435 14.773438,32.13867 l -53.373047,86.13086 a 8,8 0 0 0 2.585937,11.01367 8,8 0 0 0 11.015625,-2.58594 l 53.533204,-86.39258 c 4.544423,1.64448 9.370639,2.69532 14.464839,2.69532 9.54172,0 18.29454,-3.25527 25.44727,-8.56446 l 86.90625,88.97071 a 8,8 0 0 0 11.3125,0.13281 8,8 0 0 0 0.13281,-11.3125 l -87.45703,-89.5332 c 4.15212,-6.61044 6.6582,-14.35223 6.6582,-22.69336 0,-12.255635 -5.25714,-23.283619 -13.55273,-31.134769 l 16.87305,-27.267578 a 8,8 0 0 0 -2.5918,-11.013672 8,8 0 0 0 -11.01367,2.59375 l -16.70703,26.998047 c -4.96103,-2.009748 -10.34738,-3.175781 -16.00782,-3.175781 -8.21991,-10e-7 -15.84606,2.450568 -22.394527,6.492187 l -39.5,-41.390625 A 8,8 0 0 0 35.308594,24.90625 Z m 67.494136,53.373047 c 15.00645,0 27,11.993555 27,27.000003 0,15.00644 -11.99355,27 -27,27 -15.006442,0 -26.999996,-11.99356 -26.999996,-27 10e-7,-8.02745 3.498981,-15.118429 8.988282,-20.046878 a 8,8 0 0 0 0.195312,-0.07617 8,8 0 0 0 0.05859,-0.132813 c 4.742757,-4.154384 10.898162,-6.744141 17.757808,-6.74414 z"
     id="path3" />
</svg>
