<?xml version="1.0" encoding="UTF-8" standalone="no"?>
<svg
   viewBox="0 0 256 256"
   fill="currentColor"
   version="1.1"
   id="svg1"
   xmlns="http://www.w3.org/2000/svg"
   xmlns:svg="http://www.w3.org/2000/svg">
  <defs
     id="defs1" />
  <path
     d="M 89.53125,33.300781 48.224609,75.455078 a 6.2222222,6.2222222 0 0 0 0.08984,8.798828 6.2222222,6.2222222 0 0 0 8.798829,-0.08984 L 83.550781,57.183594 84.3125,132.04297 C 68.599837,134.76222 56.554688,148.54008 56.554688,165 c 0,18.39716 15.048156,33.44532 33.445312,33.44532 16.08398,0 29.6074,-11.50168 32.75391,-26.6875 l 75.1875,-0.76173 -26.4375,26.98047 a 6.2222222,6.2222222 0 0 0 0.0898,8.79883 6.2222222,6.2222222 0 0 0 8.79883,-0.0898 l 41.30664,-42.15429 -42.1543,-41.30664 a 6.2222222,6.2222222 0 0 0 -4.41797,-1.7793 6.2222222,6.2222222 0 0 0 -4.38085,1.86915 6.2222222,6.2222222 0 0 0 0.0898,8.79882 l 26.98047,26.4375 -74.85938,0.76172 c -2.3371,-13.5045 -12.84246,-24.29889 -26.199218,-27.06641 l -0.761718,-75.187496 26.980466,26.4375 a 6.2222222,6.2222222 0 0 0 8.79883,-0.08984 6.2222222,6.2222222 0 0 0 -0.0898,-8.798828 z M 90,144 c 11.67168,0 21,9.32832 21,21 0,11.67168 -9.32832,21 -21,21 -11.671679,0 -21,-9.32832 -21,-21 0,-11.67168 9.328321,-21 21,-21 z"
     style="baseline-shift:baseline;display:inline;overflow:visible;vector-effect:none;stroke-width:0.777778;stroke-linecap:round;stroke-linejoin:round;enable-background:accumulate;stop-color:#000000"
     id="path11" />
</svg>
